<svg xmlns="http://www.w3.org/2000/svg" xmlns:xlink="http://www.w3.org/1999/xlink" width="194" height="38" viewBox="0 0 194 38">
    <defs>
        <path id="logoa" d="M.348.241h11.563v19.07H.348z"/>
        <path id="logoc" d="M0 37h192.776V.257H0z"/>
    </defs>
    <g fill="none" fill-rule="evenodd">
        <path fill="#231F20" d="M41.752 24.349V6.25h4.52v14.29h7.2v3.808zM55.864 24.35h4.52V6.25h-4.52zM67.845 9.983v3.732h7.2v3.604h-7.2v7.03h-4.442V6.251H75.65v3.73zM78.276 24.349V6.25h12.508v3.707H82.61v3.4h7.727v3.5H82.61v3.758h8.646v3.733zM97.563 24.349h-1.498V6.25h11.037v1.304h-9.539v6.774h8.856v1.277h-8.856zM110.543 24.348h1.498V6.251h-1.498zM123.085 24.349h-1.498V7.555h-6.254V6.25h14.006v1.304h-6.254zM146.137 22.253h.053V6.25h1.497V24.35h-1.891l-11.59-16.104h-.051V24.35h-1.499V6.25h1.892zM153.283 23.045h10.196v1.303h-11.667V6.251h11.326v1.303h-9.855v6.749h9.225v1.279h-9.225z"/>
        <g transform="translate(0 -.257)">
            <path fill="#231F20" d="M176.8 9.116c-1.024-1.201-2.311-1.84-4.099-1.84-1.997 0-4.31 1.175-4.31 3.655 0 5.265 9.776 2.556 9.776 9.049 0 3.475-2.97 5.112-5.94 5.112-2.417 0-4.282-.946-5.623-2.607l1.052-.895c1.34 1.533 2.759 2.224 4.572 2.224 2.181 0 4.415-1.304 4.415-3.758 0-5.317-9.749-2.684-9.749-9.125 0-3.349 3.048-4.909 5.886-4.909 2.444 0 4.152.947 5.098 2.148l-1.077.946z"/>
            <g transform="translate(180.865 5.781)">
                <mask id="logob" fill="#fff">
                    <use xlink:href="#logoa"/>
                </mask>
                <path fill="#231F20" d="M10.545 3.335c-1.024-1.202-2.312-1.84-4.1-1.84-1.997 0-4.31 1.175-4.31 3.654 0 5.266 9.776 2.557 9.776 9.05 0 3.475-2.969 5.112-5.938 5.112-2.418 0-4.283-.946-5.625-2.608l1.052-.895c1.34 1.534 2.76 2.224 4.573 2.224 2.18 0 4.414-1.303 4.414-3.757 0-5.317-9.749-2.684-9.749-9.126C.638 1.801 3.686.241 6.524.241c2.444 0 4.152.947 5.098 2.148l-1.077.946z" mask="url(#logob)"/>
            </g>
            <path fill="#231F20" d="M96.875 36.851h-.818v-5.858h3.655v.72h-2.837v1.82h2.656v.703h-2.656zM102.692 34.692h2.191l-1.091-2.747-1.1 2.747zm-.876 2.16h-.91l2.538-5.858h.745l2.514 5.857h-.926l-.595-1.44h-2.78l-.586 1.44zM111.751 35.494h.017l1.73-4.5h1.273v5.858h-.819v-4.899h-.017l-1.943 4.899h-.521l-1.936-4.899h-.016v4.899h-.794v-5.859H110z"/>
            <mask id="logod" fill="#fff">
                <use xlink:href="#logoc"/>
            </mask>
            <path fill="#231F20" d="M117.462 36.851h.82v-5.858h-.82zM121.79 36.123h2.613v.728h-3.431v-5.858h.818zM128.037 36.851h-.828V34.32l-2.191-3.326h1.009l1.62 2.648 1.63-2.648h.951l-2.191 3.326zM138.923 31.564c-1.349 0-2.208 1.068-2.208 2.35 0 1.307.868 2.35 2.208 2.35 1.356 0 2.225-1.043 2.225-2.35 0-1.282-.861-2.35-2.225-2.35m0 5.436c-1.778 0-3.093-1.283-3.093-3.086 0-1.829 1.315-3.07 3.093-3.07 1.786 0 3.11 1.241 3.11 3.07 0 1.803-1.324 3.086-3.11 3.086M144.904 36.851h-.82v-5.858h3.656v.72h-2.836v1.82h2.654v.703h-2.654zM154.66 36.156h1.025c.696 0 1.457-.215 1.457-1.01 0-.686-.49-.984-1.383-.984h-1.1v1.994zm0-2.689h1.068c.627 0 1.148-.273 1.148-.91 0-.628-.504-.877-1.281-.877h-.935v1.787zm-.82-2.474h2.02c.884 0 1.835.364 1.835 1.481 0 .645-.414 1.11-1.025 1.274v.017c.752.09 1.298.604 1.298 1.422 0 1.126-.976 1.664-2.2 1.664h-1.927v-5.858zM161.238 33.558h.943c.769 0 1.373-.24 1.373-.943 0-.704-.604-.927-1.315-.927h-1v1.87zm0 3.293h-.818v-5.858h1.876c1.134 0 2.085.43 2.085 1.622 0 .86-.587 1.407-1.422 1.547l1.637 2.69h-.993l-1.488-2.608h-.877v2.607zM167.882 34.692h2.192l-1.091-2.747-1.1 2.747zm-.877 2.16h-.91l2.54-5.858h.745l2.513 5.857h-.926l-.595-1.44h-2.78l-.587 1.44zM178.043 35.676h.015v-4.683h.82v5.858h-1.034l-3.093-4.783h-.017v4.783h-.819v-5.858h1.067zM182.388 36.131h1.025c1.414 0 2.448-.81 2.448-2.21 0-1.447-1.034-2.216-2.448-2.216h-1.025v4.426zm-.819-5.138h2.01c1.496 0 3.159.852 3.159 2.929 0 2.003-1.663 2.93-3.159 2.93h-2.01v-5.859zM192.043 32.077c-.232-.323-.654-.546-1.142-.546-.53 0-1.14.29-1.14.952 0 .637.537.81 1.198 1.025.786.249 1.72.546 1.72 1.713 0 1.216-.984 1.779-2.025 1.779-.737 0-1.48-.29-1.928-.852l.637-.538c.273.405.77.687 1.306.687.547 0 1.175-.306 1.175-1.002 0-.711-.645-.902-1.389-1.133-.744-.231-1.522-.571-1.522-1.646 0-1.167 1.043-1.672 2.01-1.672.679 0 1.314.265 1.679.67l-.579.563z" mask="url(#logod)"/>
            <path fill="#D01F2D" d="M30.337 8.358a16.196 16.196 0 0 0-5.467-5.642c.153.247.305.5.45.766a21.49 21.49 0 0 1 1.61 3.765c.916 2.824 1.402 6.04 1.393 9.386-.008 3.342-.52 6.48-1.405 9.2-.544 1.673-1.23 3.188-2.03 4.494 7.416-4.632 9.87-14.35 5.449-21.969" mask="url(#logod)"/>
            <path fill="#D01F2D" d="M24.066 4.175c-.028-.051-.057-.1-.086-.15-.62-1.096-1.306-2.016-2.038-2.748A16.322 16.322 0 0 0 16.15.258c.08.08.159.162.237.245.395.411.776.86 1.137 1.36.29.402.568.829.835 1.282.022.036.046.067.067.103 2.05 3.532 3.172 8.207 3.159 13.166-.013 5.24-1.322 9.977-3.41 13.386-.276.45-.566.871-.866 1.272a13.65 13.65 0 0 1-1.36 1.555l-.171.169c2.128.067 4.289-.283 6.357-1.085.719-.762 1.379-1.7 1.965-2.775 1.71-3.144 2.78-7.497 2.792-12.305.01-4.715-.992-9.138-2.825-12.456M7.616 3.656c.283-.507.582-.98.893-1.423-.136.074-.273.144-.407.223-.438.254-.856.527-1.26.815a16.183 16.183 0 0 0-3.075 2.84c-4.247 5.103-5.091 12.515-1.565 18.59a16.097 16.097 0 0 0 3.887 4.517c.585.47 1.195.9 1.833 1.28-2.088-3.432-3.39-8.303-3.376-13.705.012-4.954 1.103-9.62 3.07-13.137" mask="url(#logod)"/>
            <path fill="#D01F2D" d="M15.674 6.441a20.812 20.812 0 0 0-.696 1.696c-.969 2.68-1.495 5.755-1.504 8.975-.008 3.338.549 6.518 1.574 9.273.09.244.179.49.277.728-.078.173-.154.349-.235.517-.032.068-.065.133-.098.2-.108.214-.218.425-.33.63-.044.078-.085.158-.129.235l-.021.035-.018.03a22.269 22.269 0 0 1-.975-2.375c-.969-2.797-1.486-5.97-1.477-9.277.008-3.277.533-6.419 1.5-9.192a21.73 21.73 0 0 1 1.37-3.143c.005-.013.011-.025.017-.036.07.112.142.214.21.33.22.379.426.775.622 1.183-.03.063-.058.127-.087.191m2.344-.813c-.17-.374-.346-.74-.535-1.092-.1-.188-.192-.385-.298-.567l-.026-.043a16.42 16.42 0 0 0-.512-.801C15.884 1.986 15.04 1.07 14.145.392c-.163.022-.325.048-.486.075-.56.091-1.119.214-1.673.366-.134.037-.267.073-.4.113-.99.822-1.91 1.964-2.72 3.41-1.85 3.308-2.874 7.726-2.887 12.44-.016 6.382 1.835 11.954 4.592 14.976.378.142.763.264 1.15.378.536.155 1.078.284 1.627.385.104.019.207.04.31.058.045.008.09.012.135.02.085-.057.17-.115.253-.176l.034-.023c.209-.156.414-.327.616-.507l.132-.119c.197-.182.391-.373.58-.577.03-.03.057-.064.085-.096.172-.19.34-.389.505-.597.034-.042.068-.082.1-.125.135-.175.268-.355.397-.54l.12-.178.098-.148.012-.02c.164-.25.326-.507.48-.777l.021-.035c.042-.074.082-.152.123-.226l.005-.009c.113-.205.223-.416.33-.63l.099-.2c.142-.294.28-.596.412-.908.022-.05.042-.103.063-.155.119-.287.232-.58.34-.88l.066-.179a23.307 23.307 0 0 0 .397-1.243 23.986 23.986 0 0 0 .59-2.472c.07-.377.135-.759.191-1.147.01-.062.017-.126.026-.19.05-.358.093-.722.13-1.088l.02-.201c.037-.4.066-.806.088-1.215.005-.088.008-.177.012-.265.019-.422.031-.847.033-1.276.01-3.967-.746-7.716-2.133-10.783" mask="url(#logod)"/>
        </g>
    </g>
</svg>
